# xmcd
#
# Track frame offsets: 
#        150
#        18022
#        36471
#        56989
#        77048
#        98819
#        119906
#        134745
#        157744
#        180136
#
# Disc length: 2711 seconds
#
# Revision: 2
# Processed by: cddbd v1.5.2PL0 Copyright (c) Steve Scherf et al.
# Submitted via: ExactAudioCopy v0.99pb4
#
DISCID=800a950a
DTITLE=Voivod - Katorz (promo)
DYEAR=2006
DGENRE=Thrash Metal
TTITLE0=The Getaway
TTITLE1=Dognation
TTITLE2=Mr Clean
TTITLE3=After All
TTITLE4=Odds and Frauds
TTITLE5=Red My Mind
TTITLE6=Silly Clones
TTITLE7=No Angel
TTITLE8=The X-Stream
TTITLE9=Polaroids
EXTD=
EXTT0=
EXTT1=
EXTT2=
EXTT3=
EXTT4=
EXTT5=
EXTT6=
EXTT7=
EXTT8=
EXTT9=
PLAYORDER=
